<?xml version="1.0" encoding="UTF-8"?>
<svg width="64px" height="64px" viewBox="0 0 64 64" version="1.1" xmlns="http://www.w3.org/2000/svg" xmlns:xlink="http://www.w3.org/1999/xlink">
    <title>icon</title>
    <defs>
        <linearGradient x1="0%" y1="0%" x2="50%" y2="50%" id="linearGradient-1">
            <stop stop-color="#A943FE" offset="0%"></stop>
            <stop stop-color="#6602BA" offset="100%"></stop>
        </linearGradient>
    </defs>
    <g id="页面-1" stroke="none" stroke-width="1" fill="none" fill-rule="evenodd">
        <g id="ICON" transform="translate(-45.000000, -34.000000)">
            <g id="icon" transform="translate(45.000000, 34.000000)">
                <rect id="矩形" fill="url(#linearGradient-1)" x="0" y="0" width="64" height="64" rx="11"></rect>
                <g id="编组-14" transform="translate(4.571429, 10.057143)">
                    <path d="M52.0479538,0 C53.5994261,0 54.8571429,1.25767754 54.8571429,2.8091014 C54.8571429,4.36052526 53.5994261,5.61820279 52.0479538,5.61820279 C51.8429353,5.61820279 51.6430464,5.59624102 51.4505115,5.55454177 L49.7972893,22.808612 L46.1599575,24.3171602 C47.3077467,26.3634792 47.9460841,28.6318245 47.9460841,31.0192525 C47.9460841,40.0818691 38.7480113,47.4285714 27.4016135,47.4285714 C16.0552157,47.4285714 6.85714286,40.0818691 6.85714286,31.0192525 C6.85714286,28.6287214 7.49714062,26.3575827 8.64774755,24.3091821 L5.03353292,22.808612 L3.38060469,5.56004899 C3.19610296,5.59817238 3.00498523,5.61820279 2.80918901,5.61820279 C1.25771676,5.61820279 0,4.36052526 0,2.8091014 C0,1.25767754 1.25771676,0 2.80918901,0 C4.36066126,0 5.61837802,1.25767754 5.61837802,2.8091014 C5.61837802,3.46782448 5.39163826,4.0735913 5.01194524,4.55261769 L5.03353292,4.53874778 L20.6094378,12.6665684 L20.0511178,15.6914222 C22.3334347,14.9927555 24.8115516,14.6099337 27.4016135,14.6099337 C30.0026325,14.6099337 32.4907575,14.9960014 34.7810646,15.7003062 L34.2213845,12.6665684 L49.7972893,4.53874778 L49.8684368,4.58154391 C49.4747746,4.09808774 49.2387648,3.48115523 49.2387648,2.8091014 C49.2387648,1.25767754 50.4964816,0 52.0479538,0 Z M21.2066148,30.3746967 C16.838002,31.8531018 13.8515128,34.8395998 13.8515128,38.2830872 C13.8515128,43.1959294 19.9304771,47.1785749 27.4292596,47.1785749 C34.9280422,47.1785749 41.0070065,43.1959294 41.0070065,38.2830872 C41.0070065,34.8705749 38.0740042,31.9068676 33.7694585,30.414958 L33.6836406,30.4503485 C29.8119927,32.0469806 25.4765612,32.0729551 21.5933904,30.5338263 L21.2066148,30.3746967 Z M27.4728281,21.3803829 C25.0594268,21.3803829 23.1029785,23.1202685 23.1029785,25.2665263 C23.1029785,26.9454483 24.3001757,28.3757016 25.9767904,28.9189589 L25.9767904,28.9189589 L25.9778795,29.4955647 L26.8978479,29.4955647 L26.896838,29.1192113 C26.9730184,29.1281319 27.0498173,29.1353073 27.127182,29.140691 L27.127182,29.140691 L27.12784,29.4955647 L28.0478083,29.4955647 L28.0478192,29.1193282 C28.125174,29.1102862 28.2018916,29.099445 28.2779171,29.0868532 L28.2779171,29.0868532 L28.2778004,29.4955647 L29.1977687,29.4955647 L29.1976239,28.8382302 C30.7533221,28.2432983 31.8426776,26.8680468 31.8426776,25.2665263 C31.8426776,23.1202685 29.8862294,21.3803829 27.4728281,21.3803829 Z M24.9860121,25.759098 C25.2007379,25.3014109 25.5614543,25.016889 25.791695,25.1235999 C26.0219352,25.230312 26.0345123,25.6878474 25.8197866,26.1455345 C25.6050608,26.6032216 25.2443444,26.8877435 25.0141036,26.7810326 C24.7838635,26.6743206 24.7712863,26.2167851 24.9860121,25.759098 Z M29.1539611,25.1235999 C29.3842019,25.016889 29.7449183,25.3014109 29.9596441,25.759098 C30.1743698,26.2167851 30.1617927,26.6743206 29.9315525,26.7810326 C29.7013118,26.8877435 29.3405954,26.6032216 29.1258696,26.1455345 C28.9111438,25.6878474 28.9237209,25.230312 29.1539611,25.1235999 Z" id="形状结合" fill="#FFFFFF"></path>
                    <g id="heart-fill" transform="translate(17.016402, 33.084972)" fill-rule="nonzero">
                        <rect id="矩形" fill="#000000" opacity="0" x="0" y="0" width="7.49117069" height="7.49093706"></rect>
                        <path d="M6.71209745,2.08770216 C6.61284686,1.86193596 6.47063705,1.66012566 6.29065277,1.48662688 C6.11066848,1.31385403 5.90179783,1.17882987 5.66848487,1.08373221 C5.42776514,0.985730803 5.17297258,0.936367132 4.91003257,0.936367132 C4.54487927,0.936367132 4.18861408,1.03436854 3.87901148,1.2194823 C3.80494387,1.26376442 3.73457964,1.31240215 3.6679188,1.36539551 C3.60125795,1.31240215 3.53089373,1.26376442 3.45682612,1.2194823 C3.14722352,1.03436854 2.79095833,0.936367132 2.42580503,0.936367132 C2.16286502,0.936367132 1.90807245,0.985730803 1.66735273,1.08373221 C1.43478044,1.17810393 1.22516911,1.31385403 1.04518483,1.48662688 C0.864459867,1.66012566 0.722990737,1.86193596 0.623740143,2.08770216 C0.520786169,2.3221796 0.468198168,2.57117576 0.468198168,2.82743129 C0.468198168,3.06916809 0.518564141,3.321068 0.618555411,3.57732353 C0.702251807,3.79147475 0.822241331,4.01361126 0.975561278,4.23792559 C1.21850303,4.59290846 1.55254794,4.96313599 1.96732654,5.33844508 C2.65467393,5.96057252 3.33535524,6.39032683 3.36424161,6.4077493 L3.53978184,6.51809163 C3.61755283,6.56672936 3.7175441,6.56672936 3.79531508,6.51809163 L3.97085531,6.4077493 C3.99974168,6.38960089 4.67968231,5.96057252 5.36777038,5.33844508 C5.78254898,4.96313599 6.11659389,4.59290846 6.35953564,4.23792559 C6.51285559,4.01361126 6.63358579,3.79147475 6.71654151,3.57732353 C6.81653278,3.321068 6.86690647,3.06916809 6.86690647,2.82743129 C6.86763943,2.57117576 6.81505143,2.3221796 6.71209745,2.08770216 Z" id="路径" fill="#FFFFFF"></path>
                    </g>
                    <g id="heart-fill" transform="translate(31.842678, 33.084972)" fill-rule="nonzero">
                        <rect id="矩形" fill="#000000" opacity="0" x="0" y="0" width="7.49117069" height="7.49093706"></rect>
                        <path d="M6.71209745,2.08770216 C6.61284686,1.86193596 6.47063705,1.66012566 6.29065277,1.48662688 C6.11066848,1.31385403 5.90179783,1.17882987 5.66848487,1.08373221 C5.42776514,0.985730803 5.17297258,0.936367132 4.91003257,0.936367132 C4.54487927,0.936367132 4.18861408,1.03436854 3.87901148,1.2194823 C3.80494387,1.26376442 3.73457964,1.31240215 3.6679188,1.36539551 C3.60125795,1.31240215 3.53089373,1.26376442 3.45682612,1.2194823 C3.14722352,1.03436854 2.79095833,0.936367132 2.42580503,0.936367132 C2.16286502,0.936367132 1.90807245,0.985730803 1.66735273,1.08373221 C1.43478044,1.17810393 1.22516911,1.31385403 1.04518483,1.48662688 C0.864459867,1.66012566 0.722990737,1.86193596 0.623740143,2.08770216 C0.520786169,2.3221796 0.468198168,2.57117576 0.468198168,2.82743129 C0.468198168,3.06916809 0.518564141,3.321068 0.618555411,3.57732353 C0.702251807,3.79147475 0.822241331,4.01361126 0.975561278,4.23792559 C1.21850303,4.59290846 1.55254794,4.96313599 1.96732654,5.33844508 C2.65467393,5.96057252 3.33535524,6.39032683 3.36424161,6.4077493 L3.53978184,6.51809163 C3.61755283,6.56672936 3.7175441,6.56672936 3.79531508,6.51809163 L3.97085531,6.4077493 C3.99974168,6.38960089 4.67968231,5.96057252 5.36777038,5.33844508 C5.78254898,4.96313599 6.11659389,4.59290846 6.35953564,4.23792559 C6.51285559,4.01361126 6.63358579,3.79147475 6.71654151,3.57732353 C6.81653278,3.321068 6.86690647,3.06916809 6.86690647,2.82743129 C6.86763943,2.57117576 6.81505143,2.3221796 6.71209745,2.08770216 Z" id="路径" fill="#FFFFFF"></path>
                    </g>
                    <ellipse id="椭圆形" fill="#FFFFFF" cx="27.4454798" cy="44.8749663" rx="1" ry="1"></ellipse>
                </g>
            </g>
        </g>
    </g>
</svg>